name analog
datacolumns 19
datarows 63
range 0.743 0.774
endheader
time	ground_force_vx	ground_force_vy	ground_force_vz	ground_force_px	ground_force_py	ground_force_pz	l_ground_force_vx	l_ground_force_vy	l_ground_force_vz	l_ground_force_px	l_ground_force_py	l_ground_force_pz	ground_torque_x	ground_torque_y	ground_torque_z	l_ground_torque_x	l_ground_torque_y	l_ground_torque_z
0.743	-0.0	-0.0	-0.0	-2.5588293075561523	-0.8146562576293945	-719.3112182617188	-0.0	-0.0	-0.0	-0.0	-0.0	-0.0	-0.0	-0.0	-0.0	-0.0	-0.0	-0.0
0.7435	-0.0	-0.0	-0.0	-3.805696725845337	-0.0137739181518554	-718.1312866210938	-0.0	-0.0	-0.0	-0.0	-0.0	-0.0	-0.0	-0.0	-0.0	-0.0	-0.0	-0.0
0.744	-0.0	-0.0	-0.0	-5.547226905822754	1.070276975631714	-714.8945922851562	-0.0	-0.0	-0.0	-0.0	-0.0	-0.0	-0.0	-0.0	-0.0	-0.0	-0.0	-0.0
0.7445	-0.0	-0.0	-0.0	-7.658289432525635	1.797382116317749	-716.7796630859375	-0.0	-0.0	-0.0	-0.0	-0.0	-0.0	-0.0	-0.0	-0.0	-0.0	-0.0	-0.0
0.745	-0.0	-0.0	-0.0	-8.59385871887207	2.703535556793213	-717.1334228515625	-0.0	-0.0	-0.0	-0.0	-0.0	-0.0	-0.0	-0.0	-0.0	-0.0	-0.0	-0.0
0.7455	-0.0	-0.0	-0.0	-8.87639331817627	2.956245422363281	-716.4844970703125	-0.0	-0.0	-0.0	-0.0	-0.0	-0.0	-0.0	-0.0	-0.0	-0.0	-0.0	-0.0
0.746	-0.0	-0.0	-0.0	-8.356010437011719	2.9858076572418213	-720.486572265625	-0.0	-0.0	-0.0	-0.0	-0.0	-0.0	-0.0	-0.0	-0.0	-0.0	-0.0	-0.0
0.7465	-0.0	-0.0	-0.0	-7.345114707946777	2.2136945724487305	-720.3703002929688	-0.0	-0.0	-0.0	-0.0	-0.0	-0.0	-0.0	-0.0	-0.0	-0.0	-0.0	-0.0
0.747	-0.0	-0.0	-0.0	-6.735141277313232	1.9314947128295896	-725.7255859375	-0.0	-0.0	-0.0	-0.0	-0.0	-0.0	-0.0	-0.0	-0.0	-0.0	-0.0	-0.0
0.7475	-0.0	-0.0	-0.0	-5.42685079574585	1.4852633476257324	-727.5477294921875	-0.0	-0.0	-0.0	-0.0	-0.0	-0.0	-0.0	-0.0	-0.0	-0.0	-0.0	-0.0
0.748	-0.0	-0.0	-0.0	-3.702714681625366	0.4446958899497986	-729.6735229492188	-0.0	-0.0	-0.0	-0.0	-0.0	-0.0	-0.0	-0.0	-0.0	-0.0	-0.0	-0.0
0.7485	-0.0	-0.0	-0.0	-2.424849510192871	0.0451207160949707	-731.848388671875	-0.0	-0.0	-0.0	-0.0	-0.0	-0.0	-0.0	-0.0	-0.0	-0.0	-0.0	-0.0
0.749	-0.0	-0.0	-0.0	-2.1698968410491943	-0.8762261271476746	-731.84326171875	-0.0	-0.0	-0.0	-0.0	-0.0	-0.0	-0.0	-0.0	-0.0	-0.0	-0.0	-0.0
0.7495	-0.0	-0.0	-0.0	-1.6344830989837646	-0.5212298631668091	-729.6697998046875	-0.0	-0.0	-0.0	-0.0	-0.0	-0.0	-0.0	-0.0	-0.0	-0.0	-0.0	-0.0
0.75	-0.0	-0.0	-0.0	-1.6967198848724363	-0.0739888995885849	-729.3765258789062	-0.0	-0.0	-0.0	-0.0	-0.0	-0.0	-0.0	-0.0	-0.0	-0.0	-0.0	-0.0
0.7505000000000001	-0.0	-0.0	-0.0	-2.4238765239715576	-0.1914953589439392	-727.6632080078125	-0.0	-0.0	-0.0	-0.0	-0.0	-0.0	-0.0	-0.0	-0.0	-0.0	-0.0	-0.0
0.751	-0.0	-0.0	-0.0	-2.750295400619507	0.5630455017089844	-727.964111328125	-0.0	-0.0	-0.0	-0.0	-0.0	-0.0	-0.0	-0.0	-0.0	-0.0	-0.0	-0.0
0.7515000000000001	-0.0	-0.0	-0.0	-3.4334444999694824	1.2630670070648191	-724.483642578125	-0.0	-0.0	-0.0	-0.0	-0.0	-0.0	-0.0	-0.0	-0.0	-0.0	-0.0	-0.0
0.752	-0.0	-0.0	-0.0	-3.9558427333831783	1.8386578559875488	-725.179443359375	-0.0	-0.0	-0.0	-0.0	-0.0	-0.0	-0.0	-0.0	-0.0	-0.0	-0.0	-0.0
0.7525000000000001	-0.0	-0.0	-0.0	-3.971245765686035	2.763042449951172	-720.2552490234375	-0.0	-0.0	-0.0	-0.0	-0.0	-0.0	-0.0	-0.0	-0.0	-0.0	-0.0	-0.0
0.753	-0.0	-0.0	-0.0	-4.192893981933594	2.969026803970337	-719.9024047851562	-0.0	-0.0	-0.0	-0.0	-0.0	-0.0	-0.0	-0.0	-0.0	-0.0	-0.0	-0.0
0.7535000000000001	-0.0	-0.0	-0.0	-4.22053861618042	2.526406526565552	-715.9566650390625	-0.0	-0.0	-0.0	-0.0	-0.0	-0.0	-0.0	-0.0	-0.0	-0.0	-0.0	-0.0
0.754	-0.0	-0.0	-0.0	-4.057395935058594	2.8796417713165283	-712.6082153320312	-0.0	-0.0	-0.0	-0.0	-0.0	-0.0	-0.0	-0.0	-0.0	-0.0	-0.0	-0.0
0.7545000000000001	-0.0	-0.0	-0.0	-3.389999389648437	2.8248543739318848	-710.6735229492188	-0.0	-0.0	-0.0	-0.0	-0.0	-0.0	-0.0	-0.0	-0.0	-0.0	-0.0	-0.0
0.755	-0.0	-0.0	-0.0	-2.769272565841675	2.5228657722473145	-706.3746948242188	-0.0	-0.0	-0.0	-0.0	-0.0	-0.0	-0.0	-0.0	-0.0	-0.0	-0.0	-0.0
0.7555000000000001	-0.0	-0.0	-0.0	-2.781056404113769	1.8291579484939573	-705.1773071289062	-0.0	-0.0	-0.0	-0.0	-0.0	-0.0	-0.0	-0.0	-0.0	-0.0	-0.0	-0.0
0.756	-0.0	-0.0	-0.0	-3.327726364135742	1.8914881944656368	-701.386962890625	-0.0	-0.0	-0.0	-0.0	-0.0	-0.0	-0.0	-0.0	-0.0	-0.0	-0.0	-0.0
0.7565000000000001	-0.0	-0.0	-0.0	-3.894073486328125	2.402168273925781	-703.0133056640625	-0.0	-0.0	-0.0	-0.0	-0.0	-0.0	-0.0	-0.0	-0.0	-0.0	-0.0	-0.0
0.757	-0.0	-0.0	-0.0	-6.251202583312988	1.9608688354492188	-701.0621337890625	-0.0	-0.0	-0.0	-0.0	-0.0	-0.0	-0.0	-0.0	-0.0	-0.0	-0.0	-0.0
0.7575000000000001	-0.0	-0.0	-0.0	-7.210381507873535	1.9247524738311768	-702.93310546875	-0.0	-0.0	-0.0	-0.0	-0.0	-0.0	-0.0	-0.0	-0.0	-0.0	-0.0	-0.0
0.758	-0.0	-0.0	-0.0	-8.81614875793457	0.911917209625244	-705.7777709960938	-0.0	-0.0	-0.0	-0.0	-0.0	-0.0	-0.0	-0.0	-0.0	-0.0	-0.0	-0.0
0.7585000000000001	-0.0	-0.0	-0.0	-9.708215713500977	-0.7498661279678345	-709.8089599609375	-0.0	-0.0	-0.0	-0.0	-0.0	-0.0	-0.0	-0.0	-0.0	-0.0	-0.0	-0.0
0.759	-0.0	-0.0	-0.0	-9.960042953491213	-0.865185558795929	-712.48876953125	-0.0	-0.0	-0.0	-0.0	-0.0	-0.0	-0.0	-0.0	-0.0	-0.0	-0.0	-0.0
0.7595000000000001	-0.0	-0.0	-0.0	-9.456314086914062	-2.6841368675231934	-717.3084716796875	-0.0	-0.0	-0.0	-0.0	-0.0	-0.0	-0.0	-0.0	-0.0	-0.0	-0.0	-0.0
0.76	-0.0	-0.0	-0.0	-8.790122985839844	-3.664393186569214	-721.0908813476562	-0.0	-0.0	-0.0	-0.0	-0.0	-0.0	-0.0	-0.0	-0.0	-0.0	-0.0	-0.0
0.7605000000000001	-0.0	-0.0	-0.0	-7.814921855926514	-5.122000217437744	-724.14453125	-0.0	-0.0	-0.0	-0.0	-0.0	-0.0	-0.0	-0.0	-0.0	-0.0	-0.0	-0.0
0.761	-0.0	-0.0	-0.0	-6.811811447143555	-5.882606506347656	-728.7114868164062	-0.0	-0.0	-0.0	-0.0	-0.0	-0.0	-0.0	-0.0	-0.0	-0.0	-0.0	-0.0
0.7615000000000001	-0.0	-0.0	-0.0	-5.919758319854736	-6.312340259552002	-730.0859985351562	-0.0	-0.0	-0.0	-0.0	-0.0	-0.0	-0.0	-0.0	-0.0	-0.0	-0.0	-0.0
0.762	-0.0	-0.0	-0.0	-4.702826976776123	-6.595649719238281	-730.5396118164062	-0.0	-0.0	-0.0	-0.0	-0.0	-0.0	-0.0	-0.0	-0.0	-0.0	-0.0	-0.0
0.7625000000000001	-0.0	-0.0	-0.0	-4.030480861663818	-6.751086711883545	-730.149658203125	-0.0	-0.0	-0.0	-0.0	-0.0	-0.0	-0.0	-0.0	-0.0	-0.0	-0.0	-0.0
0.763	-0.0	-0.0	-0.0	-3.7308075428009033	-6.807995796203613	-727.4791259765625	-0.0	-0.0	-0.0	-0.0	-0.0	-0.0	-0.0	-0.0	-0.0	-0.0	-0.0	-0.0
0.7635000000000001	-0.0	-0.0	-0.0	-4.014472961425781	-6.296144008636475	-727.6492919921875	-0.0	-0.0	-0.0	-0.0	-0.0	-0.0	-0.0	-0.0	-0.0	-0.0	-0.0	-0.0
0.764	-0.0	-0.0	-0.0	-4.712047576904297	-5.752630233764648	-723.3762817382812	-0.0	-0.0	-0.0	-0.0	-0.0	-0.0	-0.0	-0.0	-0.0	-0.0	-0.0	-0.0
0.7645000000000001	-0.0	-0.0	-0.0	-5.652532577514648	-5.396186351776123	-718.9090576171875	-0.0	-0.0	-0.0	-0.0	-0.0	-0.0	-0.0	-0.0	-0.0	-0.0	-0.0	-0.0
0.765	-0.0	-0.0	-0.0	-7.34812593460083	-5.104929447174072	-716.633056640625	-0.0	-0.0	-0.0	-0.0	-0.0	-0.0	-0.0	-0.0	-0.0	-0.0	-0.0	-0.0
0.7655000000000001	-0.0	-0.0	-0.0	-8.377631187438965	-4.756303787231445	-715.7673950195312	-0.0	-0.0	-0.0	-0.0	-0.0	-0.0	-0.0	-0.0	-0.0	-0.0	-0.0	-0.0
0.766	-0.0	-0.0	-0.0	-9.642763137817385	-4.975080490112305	-713.6806030273438	-0.0	-0.0	-0.0	-0.0	-0.0	-0.0	-0.0	-0.0	-0.0	-0.0	-0.0	-0.0
0.7665000000000001	-0.0	-0.0	-0.0	-10.09706211090088	-4.4240007400512695	-711.0824584960938	-0.0	-0.0	-0.0	-0.0	-0.0	-0.0	-0.0	-0.0	-0.0	-0.0	-0.0	-0.0
0.767	-0.0	-0.0	-0.0	-10.858709335327148	-4.618483543395996	-711.75244140625	-0.0	-0.0	-0.0	-0.0	-0.0	-0.0	-0.0	-0.0	-0.0	-0.0	-0.0	-0.0
0.7675000000000001	-0.0	-0.0	-0.0	-10.169998168945312	-3.710832357406616	-711.5928955078125	-0.0	-0.0	-0.0	-0.0	-0.0	-0.0	-0.0	-0.0	-0.0	-0.0	-0.0	-0.0
0.768	-0.0	-0.0	-0.0	-10.566935539245604	-3.6944057941436768	-711.9459228515625	-0.0	-0.0	-0.0	-0.0	-0.0	-0.0	-0.0	-0.0	-0.0	-0.0	-0.0	-0.0
0.7685	-0.0	-0.0	-0.0	-10.007987022399902	-4.050814628601074	-711.0527954101562	-0.0	-0.0	-0.0	-0.0	-0.0	-0.0	-0.0	-0.0	-0.0	-0.0	-0.0	-0.0
0.769	-0.0	-0.0	-0.0	-10.526840209960938	-3.5418150424957275	-712.5493774414062	-0.0	-0.0	-0.0	-0.0	-0.0	-0.0	-0.0	-0.0	-0.0	-0.0	-0.0	-0.0
0.7695	-0.0	-0.0	-0.0	-10.2660551071167	-3.4363296031951904	-710.85888671875	-0.0	-0.0	-0.0	-0.0	-0.0	-0.0	-0.0	-0.0	-0.0	-0.0	-0.0	-0.0
0.77	-0.0	-0.0	-0.0	-10.325250625610352	-3.4694340229034424	-710.8594970703125	-0.0	-0.0	-0.0	-0.0	-0.0	-0.0	-0.0	-0.0	-0.0	-0.0	-0.0	-0.0
0.7705	-0.0	-0.0	-0.0	-10.682243347167969	-3.7104101181030273	-709.09423828125	-0.0	-0.0	-0.0	-0.0	-0.0	-0.0	-0.0	-0.0	-0.0	-0.0	-0.0	-0.0
0.771	-0.0	-0.0	-0.0	-12.228178977966309	-3.486311435699463	-709.6292724609375	-0.0	-0.0	-0.0	-0.0	-0.0	-0.0	-0.0	-0.0	-0.0	-0.0	-0.0	-0.0
0.7715	-0.0	-0.0	-0.0	-13.26529312133789	-2.717557907104492	-708.8321533203125	-0.0	-0.0	-0.0	-0.0	-0.0	-0.0	-0.0	-0.0	-0.0	-0.0	-0.0	-0.0
0.772	-0.0	-0.0	-0.0	-13.922801971435549	-2.796311855316162	-710.0235595703125	-0.0	-0.0	-0.0	-0.0	-0.0	-0.0	-0.0	-0.0	-0.0	-0.0	-0.0	-0.0
0.7725	-0.0	-0.0	-0.0	-13.56583023071289	-2.6405909061431885	-711.591552734375	-0.0	-0.0	-0.0	-0.0	-0.0	-0.0	-0.0	-0.0	-0.0	-0.0	-0.0	-0.0
0.773	-0.0	-0.0	-0.0	-13.08051872253418	-2.835474729537964	-713.6219482421875	-0.0	-0.0	-0.0	-0.0	-0.0	-0.0	-0.0	-0.0	-0.0	-0.0	-0.0	-0.0
0.7735	-0.0	-0.0	-0.0	-11.948752403259276	-2.8408877849578857	-716.0499267578125	-0.0	-0.0	-0.0	-0.0	-0.0	-0.0	-0.0	-0.0	-0.0	-0.0	-0.0	-0.0
0.774	-0.0	-0.0	-0.0	-11.045326232910156	-3.464644193649292	-719.361083984375	-0.0	-0.0	-0.0	-0.0	-0.0	-0.0	-0.0	-0.0	-0.0	-0.0	-0.0	-0.0
